<svg xmlns="http://www.w3.org/2000/svg" width="20" height="20" viewBox="0 0 20 20" fill="none"><rect width="20" height="20" fill="none"/>
<path d="M11.1378 2.55307C10.5733 3.6453 9.29886 4.88303 7.60926 5.85692C5.92159 6.8308 4.21453 7.31775 2.98661 7.26149C2.30766 7.23045 1.49875 7.00347 1.2679 6.27984C1.08944 5.725 1.30282 5.00719 1.81688 4.25058C1.90029 4.13224 1.98565 4.01584 2.07294 3.90138C2.84888 2.89063 3.83044 2.01374 5.00211 1.33862C6.17377 0.661551 7.42303 0.250268 8.68587 0.0834261C8.8333 0.062086 8.97685 0.0465662 9.11458 0.0368662C10.0263 -0.0310344 10.7537 0.143566 11.1456 0.57425C11.6577 1.13297 11.4482 1.95166 11.1378 2.55307ZM18.3288 4.46398C18.193 4.26028 18.0514 4.06046 17.9021 3.87034C17.0194 2.72961 15.9234 1.82168 14.7033 1.17372C15.0447 1.39682 15.3182 1.68006 15.5161 2.0215C15.6169 2.19416 15.6926 2.37847 15.7469 2.57053C15.9545 3.30191 15.8361 4.1594 15.4443 5.05569C14.6567 6.86184 12.7634 8.83872 10.1893 10.3267C7.61314 11.8147 4.95361 12.4666 2.99631 12.2454C2.0225 12.1348 1.22329 11.8108 0.693711 11.2637C0.554042 11.1202 0.433772 10.963 0.334839 10.7884C0.135035 10.4412 0.0283443 10.0551 0.007006 9.63995C-0.0453698 11.0387 0.195171 12.4607 0.753846 13.811C0.837259 14.0127 0.926492 14.2126 1.02542 14.4104C1.0293 14.4182 1.03512 14.4279 1.039 14.4357C1.40175 15.0623 1.93715 15.5551 2.60252 15.912C4.95361 17.1711 8.93029 16.7385 12.649 14.5909C16.3657 12.4433 18.7284 9.21703 18.8157 6.55144C18.8429 5.79872 18.6877 5.09061 18.3288 4.46398ZM14.3017 17.4485C10.907 19.4079 7.22517 19.7591 4.87214 18.5854C7.88277 20.3799 11.7489 20.5351 14.9981 18.6591C18.2493 16.7811 20.0475 13.3551 19.999 9.84947C19.8419 12.4743 17.6964 15.4891 14.3017 17.4485Z" fill="black"/>
</svg>
